<svg width="32" height="32" xmlns="http://www.w3.org/2000/svg" stroke="null" style="vector-effect: non-scaling-stroke;">

 <g stroke="null">
  <title stroke="null">Layer 1</title>
  <g stroke="null">
   <rect stroke="null" x="-10.84777" y="-10.84777" fill="#FAF5EE" height="53.69554" width="53.69554"/>
   <path stroke="null" fill="#262626" d="m13.34207,22.71194l-1.3491,-4.02717l-6.24211,0l-1.3491,4.02717l-2.6982,0l5.1145,-15.00119l4.10771,0l5.1145,15.00119l-2.6982,0zm-6.80591,-6.28238l4.67151,0l-2.1344,-6.32265l-0.40272,0l-2.1344,6.32265zm11.85983,-8.71881l0,6.66496l6.52401,-6.66496l3.32241,0l-6.56428,6.78577l0,0.64435l6.68509,7.57107l-3.12105,0l-5.55749,-6.26224l-1.28869,1.26856l0,4.99368l-2.55725,0l0,-15.00119l2.55725,0z"/>
  </g>
 </g>
</svg>